<svg width="322" height="146" fill="none" xmlns="http://www.w3.org/2000/svg"><path d="M47.169 131.496v1.48h-6.442v4.457h5.215v1.423h-5.215v4.579h6.442v1.479H38.9v-13.418h8.268ZM56.196 144.914c-.237 0-.387-.115-.45-.346l-.149-1.152c-.406.493-.87.89-1.395 1.189-.518.294-1.114.44-1.788.44a3.468 3.468 0 0 1-1.48-.309 3.107 3.107 0 0 1-1.133-.927c-.312-.405-.552-.911-.721-1.517-.169-.605-.253-1.301-.253-2.088 0-.699.094-1.348.281-1.947.187-.606.456-1.13.805-1.573.356-.444.787-.79 1.293-1.04.505-.256 1.08-.384 1.722-.384.581 0 1.077.1 1.49.3.411.194.78.468 1.104.824v-5.262h1.667v13.792h-.993Zm-3.23-1.217c.543 0 1.017-.125 1.423-.375.412-.249.79-.602 1.133-1.058v-4.588c-.306-.412-.643-.699-1.011-.861a2.82 2.82 0 0 0-1.208-.253c-.886 0-1.567.315-2.041.946-.475.63-.712 1.529-.712 2.696 0 .618.053 1.149.16 1.592.105.437.261.799.468 1.086.206.281.458.487.758.618.3.132.643.197 1.03.197ZM61.423 135.429v6.049c0 .718.166 1.273.496 1.667.331.393.83.589 1.498.589a2.87 2.87 0 0 0 1.377-.346 4.28 4.28 0 0 0 1.19-.964v-6.995h1.666v9.485h-.993c-.237 0-.387-.115-.45-.346l-.13-1.021a5.296 5.296 0 0 1-1.386 1.105c-.512.275-1.099.412-1.76.412-.518 0-.977-.084-1.377-.253a2.767 2.767 0 0 1-.992-.73 3.137 3.137 0 0 1-.609-1.133 5.168 5.168 0 0 1-.197-1.47v-6.049h1.667ZM76.858 137.114a.756.756 0 0 1-.15.16.357.357 0 0 1-.216.056.57.57 0 0 1-.309-.113 3.296 3.296 0 0 0-1.03-.515 2.752 2.752 0 0 0-.88-.121c-.462 0-.87.084-1.227.252-.355.163-.655.4-.899.712-.237.312-.418.69-.543 1.133-.118.443-.177.94-.177 1.489 0 .574.065 1.086.196 1.536.131.443.315.817.553 1.123.237.3.524.531.861.693.343.156.727.234 1.152.234.406 0 .74-.047 1.002-.14.262-.1.48-.209.655-.328.175-.119.319-.225.43-.318a.51.51 0 0 1 .338-.15c.144 0 .25.053.318.159l.469.609a3.643 3.643 0 0 1-1.545 1.114 5.543 5.543 0 0 1-1.957.346 4.185 4.185 0 0 1-1.658-.327 3.813 3.813 0 0 1-1.32-.946 4.62 4.62 0 0 1-.89-1.536c-.212-.605-.318-1.295-.318-2.069 0-.705.097-1.358.29-1.957a4.49 4.49 0 0 1 .862-1.545 3.93 3.93 0 0 1 1.404-1.021c.556-.243 1.193-.365 1.91-.365.662 0 1.249.109 1.76.328a4.15 4.15 0 0 1 1.359.908l-.44.599ZM86.096 144.914h-.74a.882.882 0 0 1-.393-.075c-.1-.05-.166-.156-.197-.318l-.187-.88c-.25.225-.493.427-.73.608a4.578 4.578 0 0 1-.75.45 4.046 4.046 0 0 1-.843.272 4.77 4.77 0 0 1-.983.093c-.368 0-.714-.05-1.04-.15a2.422 2.422 0 0 1-.832-.468 2.268 2.268 0 0 1-.572-.777c-.137-.318-.206-.693-.206-1.124 0-.374.103-.733.31-1.077.205-.349.536-.658.992-.927.462-.268 1.064-.486 1.807-.655.743-.175 1.651-.275 2.725-.3v-.739c0-.737-.16-1.293-.478-1.667-.312-.381-.777-.571-1.395-.571-.406 0-.749.053-1.03.159-.274.1-.515.215-.72.346-.2.125-.375.241-.525.347a.75.75 0 0 1-.43.15.536.536 0 0 1-.3-.085.747.747 0 0 1-.197-.224l-.3-.534a5.416 5.416 0 0 1 1.695-1.133 5.228 5.228 0 0 1 2.013-.375c.53 0 1.002.088 1.414.263a2.89 2.89 0 0 1 1.04.73c.28.312.493.69.636 1.133.144.443.216.93.216 1.461v6.067Zm-4.326-1.02c.293 0 .561-.028.805-.085.243-.062.471-.146.683-.252.219-.113.425-.247.618-.403.2-.156.394-.334.581-.534v-1.976c-.768.025-1.42.088-1.957.188-.537.093-.974.218-1.311.374-.337.156-.584.341-.74.553-.15.212-.224.449-.224.711 0 .25.04.465.121.647.081.181.19.33.328.449.137.112.3.197.487.253.187.05.39.075.609.075ZM91.495 145.064c-.749 0-1.326-.209-1.732-.627-.4-.418-.6-1.021-.6-1.807v-5.806h-1.142a.387.387 0 0 1-.252-.084c-.069-.063-.103-.156-.103-.281v-.665l1.554-.197.384-2.93a.336.336 0 0 1 .122-.225.377.377 0 0 1 .262-.094h.843v3.268h2.715v1.208H90.83v5.693c0 .4.097.696.29.89.194.193.444.29.75.29.175 0 .325-.022.45-.065.13-.05.243-.103.337-.16.093-.056.171-.106.234-.15.068-.049.127-.074.177-.074.088 0 .166.053.235.159l.487.796c-.288.268-.634.48-1.04.636a3.59 3.59 0 0 1-1.255.225ZM97.46 135.429v9.485h-1.666v-9.485h1.667Zm.375-2.978c0 .163-.034.316-.103.459-.062.137-.15.262-.262.375a1.195 1.195 0 0 1-.833.346c-.162 0-.315-.031-.459-.094a1.356 1.356 0 0 1-.374-.252 1.382 1.382 0 0 1-.253-.375 1.135 1.135 0 0 1-.094-.459c0-.162.031-.315.094-.459.062-.149.146-.277.252-.383.113-.113.238-.2.375-.263.144-.062.297-.093.459-.093a1.145 1.145 0 0 1 .833.356c.113.106.2.234.262.383.07.144.103.297.103.459ZM104.238 135.279c.692 0 1.317.116 1.872.347a3.9 3.9 0 0 1 1.424.983c.393.424.692.939.898 1.545.213.599.319 1.27.319 2.013 0 .749-.106 1.423-.319 2.022a4.261 4.261 0 0 1-.898 1.536 3.9 3.9 0 0 1-1.424.983c-.555.225-1.18.337-1.872.337-.693 0-1.321-.112-1.883-.337a4.008 4.008 0 0 1-1.423-.983 4.368 4.368 0 0 1-.908-1.536c-.212-.599-.319-1.273-.319-2.022 0-.743.107-1.414.319-2.013a4.355 4.355 0 0 1 .908-1.545 4.008 4.008 0 0 1 1.423-.983c.562-.231 1.19-.347 1.883-.347Zm0 8.465c.936 0 1.635-.312 2.097-.937.462-.63.693-1.507.693-2.631 0-1.13-.231-2.01-.693-2.64-.462-.631-1.161-.946-2.097-.946-.475 0-.887.081-1.236.243-.35.163-.643.397-.881.703a3.227 3.227 0 0 0-.524 1.133 6.16 6.16 0 0 0-.169 1.507c0 .562.057 1.065.169 1.508.119.443.293.818.524 1.123.238.3.531.531.881.693.349.163.761.244 1.236.244ZM110.805 144.914v-9.485h.992c.237 0 .387.115.45.346l.131 1.03c.412-.455.87-.824 1.376-1.105.512-.28 1.102-.421 1.77-.421.518 0 .974.088 1.367.262.399.169.73.412.992.731.269.312.472.689.609 1.133.137.443.206.933.206 1.47v6.039h-1.667v-6.039c0-.718-.165-1.274-.496-1.667-.324-.399-.824-.599-1.498-.599-.493 0-.955.118-1.386.356a4.578 4.578 0 0 0-1.18.964v6.985h-1.666ZM125.206 144.914v-8.062l-1.048-.122a.931.931 0 0 1-.328-.14.36.36 0 0 1-.122-.29v-.684h1.498v-.917c0-.544.075-1.024.225-1.442a2.96 2.96 0 0 1 .656-1.068c.287-.293.63-.515 1.03-.665.399-.15.848-.224 1.348-.224.424 0 .818.062 1.18.187l-.038.833c-.006.125-.059.2-.159.225-.1.025-.24.037-.421.037h-.291c-.287 0-.549.038-.786.113a1.472 1.472 0 0 0-.599.365c-.169.168-.3.39-.394.665-.087.274-.131.615-.131 1.02v.871h2.744v1.208h-2.688v8.09h-1.676ZM134.98 135.279c.693 0 1.318.116 1.873.347a3.896 3.896 0 0 1 1.423.983c.394.424.693.939.899 1.545.213.599.319 1.27.319 2.013 0 .749-.106 1.423-.319 2.022a4.249 4.249 0 0 1-.899 1.536 3.896 3.896 0 0 1-1.423.983c-.555.225-1.18.337-1.873.337-.693 0-1.32-.112-1.882-.337a4.008 4.008 0 0 1-1.423-.983 4.368 4.368 0 0 1-.908-1.536c-.213-.599-.319-1.273-.319-2.022 0-.743.106-1.414.319-2.013a4.355 4.355 0 0 1 .908-1.545 4.008 4.008 0 0 1 1.423-.983c.562-.231 1.189-.347 1.882-.347Zm0 8.465c.937 0 1.636-.312 2.098-.937.462-.63.693-1.507.693-2.631 0-1.13-.231-2.01-.693-2.64-.462-.631-1.161-.946-2.098-.946-.474 0-.886.081-1.236.243a2.362 2.362 0 0 0-.88.703 3.21 3.21 0 0 0-.524 1.133 6.112 6.112 0 0 0-.169 1.507c0 .562.056 1.065.169 1.508.118.443.293.818.524 1.123.237.3.531.531.88.693.35.163.762.244 1.236.244ZM141.547 144.914v-9.485h.955c.182 0 .306.034.375.103.069.069.116.187.14.356l.113 1.479c.324-.661.724-1.176 1.198-1.545a2.668 2.668 0 0 1 1.686-.562c.262 0 .499.032.711.094.213.056.409.137.59.243l-.215 1.246c-.044.156-.14.234-.29.234-.088 0-.222-.028-.403-.084-.181-.063-.434-.094-.758-.094-.581 0-1.068.169-1.461.506-.387.337-.712.827-.974 1.47v6.039h-1.667ZM159.688 144.914h-.74a.882.882 0 0 1-.393-.075c-.1-.05-.165-.156-.196-.318l-.188-.88c-.249.225-.493.427-.73.608a4.577 4.577 0 0 1-.749.45 4.037 4.037 0 0 1-.843.272 4.765 4.765 0 0 1-.983.093c-.368 0-.715-.05-1.039-.15a2.417 2.417 0 0 1-.834-.468 2.275 2.275 0 0 1-.571-.777c-.137-.318-.206-.693-.206-1.124 0-.374.103-.733.309-1.077.206-.349.537-.658.993-.927.461-.268 1.064-.486 1.807-.655.743-.175 1.651-.275 2.725-.3v-.739c0-.737-.16-1.293-.478-1.667-.312-.381-.777-.571-1.395-.571-.406 0-.749.053-1.03.159-.275.1-.515.215-.721.346-.2.125-.375.241-.525.347a.748.748 0 0 1-.43.15.535.535 0 0 1-.3-.085.753.753 0 0 1-.197-.224l-.299-.534a5.407 5.407 0 0 1 1.695-1.133c.605-.25 1.276-.375 2.013-.375.53 0 1.002.088 1.414.263a2.89 2.89 0 0 1 1.039.73 3.1 3.1 0 0 1 .637 1.133c.143.443.215.93.215 1.461v6.067Zm-4.326-1.02c.294 0 .562-.028.805-.085.244-.062.472-.146.684-.252.218-.113.424-.247.618-.403.2-.156.393-.334.581-.534v-1.976c-.768.025-1.421.088-1.957.188-.537.093-.974.218-1.311.374-.337.156-.584.341-.74.553-.15.212-.225.449-.225.711 0 .25.041.465.122.647.081.181.19.33.328.449.137.112.299.197.487.253.187.05.39.075.608.075ZM171.265 136.993a.37.37 0 0 1-.346.206.661.661 0 0 1-.319-.103 5.296 5.296 0 0 0-.44-.225 3.395 3.395 0 0 0-.608-.234 2.806 2.806 0 0 0-.843-.113c-.281 0-.534.038-.758.113a1.809 1.809 0 0 0-.581.29 1.367 1.367 0 0 0-.365.44 1.18 1.18 0 0 0-.122.534c0 .243.069.446.206.609.144.162.331.302.562.421.231.119.493.225.786.318.294.088.594.184.899.291.313.099.615.212.909.337.293.125.555.281.786.468.231.187.415.418.553.693.143.268.215.593.215.974 0 .437-.078.842-.234 1.217-.156.368-.387.69-.693.964-.306.269-.68.481-1.124.637-.443.156-.955.234-1.535.234a4.858 4.858 0 0 1-1.798-.318 4.613 4.613 0 0 1-1.367-.834l.393-.636a.576.576 0 0 1 .178-.188.507.507 0 0 1 .272-.065c.112 0 .231.044.355.131.125.087.275.184.45.29.181.106.396.203.646.29.256.088.574.132.955.132.325 0 .609-.041.852-.122.244-.088.446-.203.609-.347.162-.143.281-.309.356-.496.081-.187.121-.387.121-.599 0-.262-.071-.478-.215-.646a1.63 1.63 0 0 0-.553-.44 4.078 4.078 0 0 0-.795-.319l-.909-.29c-.306-.1-.608-.212-.908-.337a3.328 3.328 0 0 1-.787-.487 2.253 2.253 0 0 1-.561-.712c-.138-.287-.206-.633-.206-1.039 0-.362.075-.708.224-1.039.15-.337.369-.631.656-.881a3.2 3.2 0 0 1 1.058-.608 4.23 4.23 0 0 1 1.433-.225c.624 0 1.183.1 1.676.3.499.193.93.462 1.292.805l-.375.609ZM173.954 144.914v-9.485h.993c.237 0 .387.115.449.346l.122.974c.35-.431.74-.783 1.171-1.058.437-.275.942-.412 1.517-.412.643 0 1.161.178 1.554.534.399.356.687.836.861 1.442a3.04 3.04 0 0 1 .515-.89 3.086 3.086 0 0 1 1.583-.974c.306-.074.615-.112.927-.112.499 0 .942.081 1.329.244.394.156.725.387.993.692.275.306.484.684.627 1.133.144.444.216.952.216 1.527v6.039h-1.667v-6.039c0-.743-.162-1.305-.487-1.686-.325-.387-.796-.58-1.414-.58-.274 0-.537.05-.786.15a1.824 1.824 0 0 0-.646.421 2.02 2.02 0 0 0-.45.712c-.106.28-.159.608-.159.983v6.039h-1.667v-6.039c0-.762-.153-1.33-.459-1.704-.306-.375-.752-.562-1.339-.562a2.11 2.11 0 0 0-1.151.337c-.35.218-.671.518-.965.899v7.069h-1.667ZM196.302 144.914h-.74a.879.879 0 0 1-.393-.075c-.1-.05-.166-.156-.197-.318l-.187-.88c-.25.225-.494.427-.731.608a4.577 4.577 0 0 1-.749.45 4.037 4.037 0 0 1-.843.272 4.765 4.765 0 0 1-.983.093c-.368 0-.714-.05-1.039-.15a2.422 2.422 0 0 1-.833-.468 2.265 2.265 0 0 1-.572-.777c-.137-.318-.206-.693-.206-1.124 0-.374.103-.733.309-1.077.206-.349.537-.658.993-.927.462-.268 1.064-.486 1.807-.655.743-.175 1.651-.275 2.725-.3v-.739c0-.737-.159-1.293-.478-1.667-.312-.381-.777-.571-1.395-.571-.406 0-.749.053-1.03.159a3.72 3.72 0 0 0-.721.346c-.2.125-.374.241-.524.347a.75.75 0 0 1-.431.15.54.54 0 0 1-.3-.085.75.75 0 0 1-.196-.224l-.3-.534a5.418 5.418 0 0 1 1.695-1.133 5.23 5.23 0 0 1 2.013-.375c.531 0 1.002.088 1.414.263.412.174.759.418 1.039.73.281.312.494.69.637 1.133.144.443.216.93.216 1.461v6.067Zm-4.326-1.02c.293 0 .561-.028.805-.085.243-.062.471-.146.683-.252.219-.113.425-.247.618-.403.2-.156.394-.334.581-.534v-1.976a13.24 13.24 0 0 0-1.957.188c-.537.093-.974.218-1.311.374-.337.156-.584.341-.74.553-.15.212-.224.449-.224.711 0 .25.04.465.121.647.081.181.191.33.328.449.137.112.3.197.487.253.187.05.39.075.609.075ZM198.827 144.914v-9.485h.955c.181 0 .306.034.374.103.069.069.116.187.141.356l.112 1.479c.325-.661.724-1.176 1.199-1.545a2.664 2.664 0 0 1 1.685-.562c.262 0 .5.032.712.094.212.056.409.137.59.243l-.216 1.246c-.043.156-.14.234-.29.234-.087 0-.222-.028-.403-.084-.181-.063-.433-.094-.758-.094-.581 0-1.067.169-1.461.506-.387.337-.711.827-.974 1.47v6.039h-1.666ZM209.254 145.064c-.749 0-1.326-.209-1.732-.627-.399-.418-.599-1.021-.599-1.807v-5.806h-1.142a.386.386 0 0 1-.253-.084c-.069-.063-.103-.156-.103-.281v-.665l1.554-.197.384-2.93a.333.333 0 0 1 .122-.225.376.376 0 0 1 .262-.094h.843v3.268h2.715v1.208h-2.715v5.693c0 .4.096.696.29.89.193.193.443.29.749.29.175 0 .325-.022.449-.065a2.06 2.06 0 0 0 .338-.16 4.2 4.2 0 0 0 .234-.15.324.324 0 0 1 .178-.074c.087 0 .165.053.234.159l.487.796a3.18 3.18 0 0 1-1.04.636c-.406.15-.824.225-1.255.225ZM217.121 135.279c.568 0 1.092.097 1.573.29a3.45 3.45 0 0 1 1.245.824c.35.356.621.799.815 1.33.2.524.3 1.124.3 1.798 0 .262-.029.437-.085.524-.056.088-.162.131-.318.131h-6.311c.012.6.093 1.121.243 1.564.15.443.356.815.618 1.114.262.294.575.515.937.665.362.144.767.215 1.217.215.418 0 .777-.046 1.077-.14a5.414 5.414 0 0 0 1.329-.627c.15-.1.278-.15.384-.15.138 0 .244.053.319.159l.468.609a3.27 3.27 0 0 1-.74.655 4.734 4.734 0 0 1-.927.45 5.518 5.518 0 0 1-1.011.262c-.35.062-.696.093-1.04.093a4.927 4.927 0 0 1-1.816-.327 4.131 4.131 0 0 1-1.433-.974c-.399-.431-.711-.961-.936-1.592-.225-.63-.337-1.355-.337-2.172 0-.662.1-1.28.299-1.854a4.37 4.37 0 0 1 .881-1.489c.38-.425.845-.755 1.395-.993.549-.243 1.167-.365 1.854-.365Zm.037 1.227c-.805 0-1.439.234-1.901.702-.462.462-.749 1.105-.861 1.929h5.159c0-.387-.053-.74-.159-1.058a2.312 2.312 0 0 0-.468-.834 2.023 2.023 0 0 0-.758-.543 2.463 2.463 0 0 0-1.012-.196ZM223.187 144.914v-9.485h.955c.181 0 .306.034.374.103.069.069.116.187.141.356l.112 1.479c.325-.661.724-1.176 1.199-1.545a2.666 2.666 0 0 1 1.685-.562c.263 0 .5.032.712.094.212.056.409.137.59.243l-.215 1.246c-.044.156-.141.234-.291.234a1.53 1.53 0 0 1-.402-.084c-.181-.063-.434-.094-.759-.094-.58 0-1.067.169-1.461.506-.387.337-.711.827-.973 1.47v6.039h-1.667ZM234.736 144.914v-8.062l-1.049-.122a.94.94 0 0 1-.328-.14.36.36 0 0 1-.122-.29v-.684h1.499v-.917c0-.544.075-1.024.224-1.442a2.96 2.96 0 0 1 .656-1.068c.287-.293.63-.515 1.03-.665.399-.15.849-.224 1.348-.224.425 0 .818.062 1.18.187l-.037.833c-.007.125-.06.2-.16.225-.1.025-.24.037-.421.037h-.29c-.287 0-.55.038-.787.113a1.472 1.472 0 0 0-.599.365c-.169.168-.3.39-.393.665-.088.274-.131.615-.131 1.02v.871h2.743v1.208h-2.687v8.09h-1.676ZM242.113 135.429v6.049c0 .718.165 1.273.496 1.667.331.393.83.589 1.498.589.487 0 .946-.115 1.376-.346a4.278 4.278 0 0 0 1.19-.964v-6.995h1.666v9.485h-.992c-.237 0-.387-.115-.45-.346l-.131-1.021a5.295 5.295 0 0 1-1.386 1.105c-.511.275-1.098.412-1.76.412-.518 0-.977-.084-1.376-.253a2.768 2.768 0 0 1-.993-.73 3.154 3.154 0 0 1-.609-1.133 5.172 5.172 0 0 1-.196-1.47v-6.049h1.667ZM253.951 145.064c-.749 0-1.326-.209-1.732-.627-.399-.418-.599-1.021-.599-1.807v-5.806h-1.143a.385.385 0 0 1-.252-.084c-.069-.063-.103-.156-.103-.281v-.665l1.554-.197.384-2.93a.333.333 0 0 1 .122-.225.376.376 0 0 1 .262-.094h.842v3.268h2.716v1.208h-2.716v5.693c0 .4.097.696.291.89.193.193.443.29.749.29.175 0 .324-.022.449-.065.131-.05.244-.103.337-.16.094-.056.172-.106.235-.15.068-.049.127-.074.177-.074.088 0 .166.053.235.159l.486.796c-.287.268-.633.48-1.039.636-.406.15-.824.225-1.255.225ZM259.505 135.429v6.049c0 .718.165 1.273.496 1.667.331.393.83.589 1.498.589.487 0 .946-.115 1.377-.346a4.274 4.274 0 0 0 1.189-.964v-6.995h1.667v9.485h-.993c-.237 0-.387-.115-.449-.346l-.131-1.021a5.295 5.295 0 0 1-1.386 1.105c-.512.275-1.099.412-1.761.412-.518 0-.977-.084-1.376-.253a2.777 2.777 0 0 1-.993-.73 3.137 3.137 0 0 1-.608-1.133 5.171 5.171 0 0 1-.197-1.47v-6.049h1.667ZM268.469 144.914v-9.485h.955c.181 0 .306.034.375.103.068.069.115.187.14.356l.112 1.479c.325-.661.725-1.176 1.199-1.545a2.666 2.666 0 0 1 1.685-.562c.263 0 .5.032.712.094.212.056.409.137.59.243l-.215 1.246c-.044.156-.141.234-.291.234a1.53 1.53 0 0 1-.402-.084c-.181-.063-.434-.094-.759-.094-.58 0-1.067.169-1.461.506-.387.337-.711.827-.973 1.47v6.039h-1.667ZM279.777 135.279c.568 0 1.092.097 1.573.29a3.45 3.45 0 0 1 1.245.824c.35.356.621.799.815 1.33.2.524.3 1.124.3 1.798 0 .262-.028.437-.085.524-.056.088-.162.131-.318.131h-6.311c.012.6.094 1.121.243 1.564.15.443.356.815.618 1.114.263.294.575.515.937.665a3.27 3.27 0 0 0 1.217.215c.418 0 .777-.046 1.077-.14a5.414 5.414 0 0 0 1.329-.627c.15-.1.278-.15.384-.15.138 0 .244.053.319.159l.468.609a3.27 3.27 0 0 1-.74.655 4.734 4.734 0 0 1-.927.45 5.497 5.497 0 0 1-1.011.262c-.35.062-.696.093-1.039.093a4.932 4.932 0 0 1-1.817-.327 4.131 4.131 0 0 1-1.433-.974c-.399-.431-.711-.961-.936-1.592-.225-.63-.337-1.355-.337-2.172 0-.662.1-1.28.3-1.854a4.367 4.367 0 0 1 .88-1.489 3.95 3.95 0 0 1 1.395-.993c.549-.243 1.167-.365 1.854-.365Zm.037 1.227c-.805 0-1.439.234-1.9.702-.462.462-.75 1.105-.862 1.929h5.159c0-.387-.053-.74-.159-1.058a2.312 2.312 0 0 0-.468-.834 2.023 2.023 0 0 0-.758-.543 2.463 2.463 0 0 0-1.012-.196ZM285.3 143.884c0-.162.028-.315.084-.459.063-.143.144-.268.244-.374.106-.106.231-.19.374-.253a1.15 1.15 0 0 1 .459-.094c.162 0 .315.032.459.094.143.063.268.147.374.253.106.106.188.231.244.374.062.144.093.297.093.459a1.172 1.172 0 0 1-.337.834 1.08 1.08 0 0 1-.374.243 1.132 1.132 0 0 1-.459.094c-.162 0-.315-.031-.459-.094a1.08 1.08 0 0 1-.374-.243 1.348 1.348 0 0 1-.244-.365 1.282 1.282 0 0 1-.084-.469ZM148.983 24.485c8.918-4.593 18.27-4.17 27.589-1.042.39.131.68-.207.725-.553.28-2.157.835-8.704-1.278-10.354-3.221-2.514-8.778-2.09-12.605-2.248-4.284-.175-8.571-.272-12.261 2.215-3.515 2.37-1.806 8.099-2.644 11.517-.176.717.93 1.022 1.105.304.508-2.072.467-4.094.454-6.22-.035-5.596 5.272-6.608 9.646-6.782 4.756-.188 15.466-.946 16.274 4.943.256 1.862.377 3.55.319 5.41-.018.578-3.892-.682-4.128-.744-2.628-.692-5.328-.99-8.034-1.14-5.515-.31-10.88 1.201-15.741 3.704-.656.339-.077 1.328.579.99Z" fill="#9F7381"/><path d="M148.482 14.645c-.666-.21-6.686-2.24-6.882-2.032 1.704-1.807 4.197-3.02 6.351-4.19 1.987-1.08 4.027-2.063 6.021-3.127 4.199-2.241 6.802-5.37 12.125-3.016 4.491 1.986 9.101 3.265 13.883 4.318 1.548.341 7.111 1.09 4.058 2.9-2.353 1.396-5.018 2.239-7.42 3.556-.648.356-.07 1.345.578.99 3.15-1.726 6.619-2.801 9.526-4.946.35-.258.385-.739 0-.99-3.687-2.404-8.03-2.877-12.217-3.963-3.238-.84-6.351-2.2-9.399-3.548-.876-.387-2.096-.724-3.073-.55-4.019.713-7.382 3.628-10.956 5.476-3.879 2.006-7.993 3.847-11.032 7.072a.579.579 0 0 0 .252.958c2.605.822 5.275 1.374 7.879 2.197.707.223 1.008-.883.306-1.105Z" fill="#9F7381"/><path d="M142.993 11.716c-.041 2.636-.287 5.249 0 7.878.202 1.846 2.14 4.948-.86 5.86l.704.4c-.668-2.016.289-3.64 1.043-5.42.284-.672-.703-1.257-.99-.578-.88 2.081-1.907 4.038-1.157 6.303.095.29.394.494.705.4 1.782-.54 2.755-1.708 2.46-3.648-.221-1.45-.704-2.822-.863-4.285-.248-2.275.07-4.626.106-6.908.009-.741-1.137-.74-1.148-.002ZM148.509 24.57c-3.228 9.432 4.151 21.373 14.759 19.703 9.555-1.504 15.307-13.023 12.726-21.901-.206-.708-1.312-.406-1.104.304 2.122 7.3-1.617 15.564-8.107 19.322-10.618 6.148-20.496-7.402-17.17-17.123.24-.701-.866-1-1.104-.304Z" fill="#9F7381"/><path d="M147.046 27.265c-2.317-.02-3.126 2.01-2.686 4.03.479 2.199 2.402 3.831 4.672 3.506.73-.104.418-1.208-.304-1.105-2.98.427-4.917-5.313-1.682-5.286.738.007.738-1.139 0-1.145ZM177.013 27.234c1.676-.811 1.849 1.034 1.611 2.265-.322 1.659-1.453 3.122-3.152 3.465-.724.146-.417 1.25.305 1.105 2.484-.502 3.923-2.897 4.088-5.294.148-2.174-1.402-3.512-3.43-2.531-.666.323-.084 1.31.578.99ZM155.451 43.958c-.534 5.275-5.577 7.791-10.032 9.37-2.565.909-5.828.862-7.969 2.72-4.239 3.678-4.314 9.66-2.769 14.679 2.077 6.744 12.359 2.94 17.178 2.125 11.822-2.001 23.947-1.719 35.858-.84.311.023.572-.279.572-.573-.006-6.3-.018-13.033-3.853-18.35-1.654-2.295-4.13-2.896-6.704-3.697-1.936-.603-3.799-1.26-5.578-2.252-2.526-1.41-2.403-3.413-3.114-5.783-.211-.707-1.318-.405-1.104.304.74 2.469.058 3.063 1.558 4.813 1.104 1.286 2.867 2.232 4.412 2.82 2.775 1.054 6.568 1.56 8.824 3.584 2.399 2.153 3.278 5.597 3.862 8.628.551 2.858.532 5.848.552 8.747.005.853-8.804.073-9.715.041-6.87-.244-13.743.001-20.577.727-2.927.31-5.834.796-8.726 1.334-3.561.663-10.533 2.826-12.34-1.933-1.99-5.243-1.105-12.682 4.862-14.703 6.381-2.162 15.112-3.502 15.95-11.76.073-.735-1.073-.729-1.147 0Z" fill="#9F7381"/><path d="M154.612 50.478c1.927 3.27 5.286 5.368 6.962 8.794.132.267.539.37.784.206 1.88-1.268 2.86-3.12 4.074-4.984 1.65-2.532 4.611-3.788 6.206-6.397.386-.632-.605-1.207-.99-.579-1.108 1.814-2.819 3.007-4.409 4.362-1.404 1.2-2.285 2.804-3.263 4.341-1.719 2.705-2.171.915-3.553-.696-1.642-1.913-3.522-3.414-4.823-5.624-.373-.637-1.364-.062-.988.577Z" fill="#9F7381"/><path d="M154.596 49.233c-.103-.105-.186-.17-.198-.327-.053-.732-1.199-.738-1.145 0 .034.47.205.804.532 1.139.52.527 1.328-.285.811-.812ZM28.378 139.833c.269 0 .456.186.456.443a.435.435 0 0 1-.456.455h-7.375v-23.372c-1.598 4.832-5.062 8.218-9.741 8.218-5.89 0-11.262-4.203-11.262-13.476 0-8.765 5.366-13.414 11.262-13.414 4.763 0 8.19 3.515 9.74 8.252v-7.813h4.495v39.317c0 .741.556 1.388 1.389 1.388h1.492v.002Zm-15.837-15.58c4.423 0 8.498-5.499 8.498-12.091 0-6.643-4.123-12.149-8.498-12.149-4.485 0-7.714 3.629-7.714 12.103 0 8.508 3.229 12.137 7.714 12.137Zm49.514-.036c.268 0 .454.187.454.444a.435.435 0 0 1-.455.455H54.68v-7.639c-1.405 4.613-4.773 8.032-9.898 8.032-4.955 0-7.922-2.905-7.922-8.028v-16.066c0-.741-.556-1.389-1.389-1.389h-1.492c-.269 0-.455-.187-.455-.443 0-.269.186-.456.455-.456h7.376v17.303c0 5.797 2.605 7.48 5.025 7.48 5.14 0 8.3-5.488 8.3-11.91v-10.585c0-.741-.556-1.389-1.389-1.389h-1.492c-.268 0-.455-.187-.455-.443 0-.269.187-.455.455-.455h7.376v23.7c0 .741.556 1.389 1.388 1.389h1.493Zm8.316-33.98c0-1.451 1.194-2.645 2.69-2.645 1.427 0 2.621 1.194 2.621 2.644 0 1.427-1.194 2.621-2.62 2.621-1.497 0-2.691-1.194-2.691-2.62Zm7.8 33.98c.27 0 .455.187.455.443a.435.435 0 0 1-.455.456H67.914a.435.435 0 0 1-.455-.456c0-.256.187-.443.455-.443h1.492c.833 0 1.39-.647 1.39-1.388v-21.415c0-.741-.557-1.388-1.39-1.388h-1.492c-.268 0-.455-.187-.455-.444 0-.268.187-.455.455-.455h7.376v23.701c0 .741.556 1.388 1.39 1.388l1.492.001Zm29.191-25.09v.887l-17.376 24.204h9.39c4.69 0 7.088-3.759 7.088-7.639v-1.046c0-.268.187-.455.455-.455.256 0 .443.187.443.455v9.584H84.768v-1.042l17.256-24.049H93.26c-4.69 0-7.088 3.76-7.088 7.64v1.045a.435.435 0 0 1-.454.456c-.257 0-.444-.187-.444-.456v-9.583h22.088Zm68.295 25.09c.269 0 .454.186.454.443a.435.435 0 0 1-.456.455h-10.257a.434.434 0 0 1-.454-.455c0-.257.186-.443.454-.443h1.493c.832 0 1.389-.648 1.389-1.389v-15.041c0-5.725-2.534-7.408-4.954-7.408-5.141 0-8.3 5.488-8.3 11.91v10.539c0 .741.556 1.389 1.389 1.389h1.492c.269 0 .456.187.456.443a.435.435 0 0 1-.456.455h-10.256a.435.435 0 0 1-.455-.455c0-.256.187-.443.455-.443h1.493c.832 0 1.388-.648 1.388-1.389v-15.041c0-5.725-2.533-7.408-4.953-7.408-5.141 0-8.3 5.488-8.3 11.91v10.539c0 .741.557 1.389 1.389 1.389h1.493c.268 0 .455.187.455.443a.435.435 0 0 1-.455.456h-10.257a.435.435 0 0 1-.455-.456c0-.256.186-.443.455-.443h1.492c.833 0 1.389-.648 1.389-1.389v-21.414c0-.741-.556-1.389-1.389-1.389h-1.492c-.269 0-.455-.186-.455-.443 0-.268.186-.455.455-.455h7.376v7.744c1.422-4.692 4.817-8.092 9.897-8.092 5.212 0 7.644 2.915 7.806 8.17 1.417-4.736 4.831-8.17 9.942-8.17 4.955 0 7.85 2.905 7.85 7.957v16.092c0 .741.557 1.389 1.39 1.389h1.492Zm34.612 0c.268 0 .455.187.455.443a.435.435 0 0 1-.455.456h-7.376v-7.756c-1.598 4.832-5.061 8.218-9.741 8.218-5.889 0-11.262-4.203-11.262-13.476 0-8.765 5.367-13.414 11.263-13.414 4.762 0 8.19 3.515 9.74 8.253v-7.814h4.494v23.701c0 .741.556 1.389 1.389 1.389h1.493Zm-15.838.036c4.423 0 8.498-5.499 8.498-12.091 0-6.643-4.123-12.149-8.498-12.149-4.485 0-7.714 3.629-7.714 12.103 0 8.508 3.229 12.137 7.714 12.137Zm33.787-23.757c0 6.289 10.631 9.283 10.631 16.551 0 5.488-5.109 8.441-11.678 8.441-5.949 0-10.654-3.019-10.654-7.919 0-1.875 1.022-2.867 2.074-3.095l7.394-13.547c.336-1.353.987-2.639 1.683-3.75.517-.816 1.17-1.446 1.471-1.446.314 0 .488.267.397.511-.732 1.331-1.318 2.577-1.318 4.254Zm-1.603 24.027c5.961 0 7.916-3.064 7.916-6.406 0-5.127-9.198-8.558-8.91-14.759l-6.062 11.161c.827.153 1.564.826 1.564 2.016 0 1.719-2.098 2.138-2.098 3.592 0 2.315 3.423 4.396 7.59 4.396Zm36.841-5.034c.268 0 .431.198.431.431 0 .141-.117.58-.374 1.101-.755 1.685-2.637 4.467-7.057 4.467-5.381 0-8.103-3.294-8.103-7.416v-18.046h-2.882a.435.435 0 0 1-.455-.454c0-.257.187-.444.455-.444h.573c3.147 0 5.905-2.126 5.905-7.37 0-.268.187-.455.454-.455.257 0 .444.187.444.455v7.37h9.094c.268 0 .455.187.455.456 0 .256-.187.443-.455.443h-9.094v18.046c0 3.707 1.83 5.998 4.661 5.998 2.653 0 4.422-1.319 5.404-3.835.185-.425.232-.747.544-.747Zm29.742-8.006c0 .447-.213.608-.741.608h-18.502c0 6.555 2.673 12.069 9.006 12.069 5.094 0 7.862-3.729 8.855-6.475.117-.304.28-.385.455-.385.326 0 .453.244.408.522-.457 1.773-3.229 7.664-10.358 7.664-7.05 0-13.204-4.161-13.204-13.44 0-8.494 5.159-13.358 12.366-13.358 6.869 0 11.715 4.467 11.715 12.795Zm-19.231-.243h14.544c-.047-7.918-2.851-11.646-7.031-11.646-4.198 0-7.305 4.056-7.513 11.646Zm42.176-12.46c3.826 0 5.297 2.597 5.297 5.184 0 1.972-.989 3.772-3.02 3.772-1.312 0-2.389-.851-2.389-2.331 0-1.705 1.874-2.397 1.874-3.647 0-1.025-.912-1.74-2.49-1.74-3.98 0-7.822 5.311-7.822 13.879v8.932c0 .741.556 1.389 1.389 1.389h3.177c.268 0 .455.186.455.455 0 .256-.187.443-.455.443h-11.942a.435.435 0 0 1-.455-.455c0-.257.186-.443.455-.443h1.492c.833 0 1.389-.648 1.389-1.389v-21.414c0-.741-.556-1.389-1.389-1.389h-1.492c-.269 0-.455-.187-.455-.443 0-.269.186-.455.455-.455h7.376v8.523c1.538-6.447 5.411-8.87 8.55-8.87Z" fill="#9F7381"/></svg>